<svg width="18" height="18" viewBox="0 0 18 18" fill="none" xmlns="http://www.w3.org/2000/svg">
<path fill-rule="evenodd" clip-rule="evenodd" d="M4.78785 1.5152C5.08075 1.22231 5.55562 1.22231 5.84851 1.5152L9.12124 4.78793C9.41413 5.08082 9.41413 5.5557 9.12124 5.84859C8.82835 6.14148 8.35347 6.14148 8.06058 5.84859L6.06818 3.85619V8.64008C6.06818 9.05429 5.7324 9.39007 5.31818 9.39007C4.90397 9.39007 4.56818 9.05429 4.56818 8.64008V3.85619L2.57579 5.84859C2.28289 6.14148 1.80802 6.14148 1.51513 5.84859C1.22223 5.5557 1.22223 5.08082 1.51513 4.78793L4.78785 1.5152ZM12.1515 3.56061C12.4444 3.26771 12.9193 3.26771 13.2121 3.56061L16.4849 6.83333C16.6255 6.97399 16.7045 7.16475 16.7045 7.36366C16.7045 7.56258 16.6255 7.75334 16.4849 7.89399L13.2121 11.1667C12.9193 11.4596 12.4444 11.4596 12.1515 11.1667C11.8586 10.8738 11.8586 10.399 12.1515 10.1061L14.0428 8.2147C13.1334 8.32057 12.009 8.52995 10.8938 8.93743C9.64155 9.39497 8.43814 10.0885 7.55088 11.1293C6.6753 12.1564 6.06818 13.5668 6.06818 15.5455C6.06818 15.9597 5.7324 16.2955 5.31818 16.2955C4.90397 16.2955 4.56818 15.9597 4.56818 15.5455C4.56818 13.2287 5.29061 11.4686 6.40935 10.1562C7.51641 8.85757 8.97209 8.04259 10.379 7.52853C11.7861 7.0144 13.1816 6.78752 14.2179 6.6877L12.1515 4.62127C11.8586 4.32837 11.8586 3.8535 12.1515 3.56061Z" fill="#16171A"/>
</svg>
