<svg width="20" height="20" viewBox="0 0 20 20" fill="none" xmlns="http://www.w3.org/2000/svg">
<path d="M14.9999 10V5.00004H9.9999C9.53965 5.00004 9.16656 4.62694 9.16656 4.16671C9.16656 3.70648 9.53965 3.33337 9.9999 3.33337H14.9999C15.9203 3.3334 16.6666 4.07959 16.6666 5.00004V10C16.6666 10.4603 16.2935 10.8334 15.8332 10.8334C15.373 10.8334 14.9999 10.4603 14.9999 10Z" fill="#16171A"/>
<path d="M3.33344 15V9.99996C3.33344 9.53971 3.70654 9.16663 4.16677 9.16663C4.627 9.16663 5.0001 9.53971 5.0001 9.99996V15H10.0001C10.4604 15 10.8334 15.373 10.8334 15.8333C10.8334 16.2935 10.4604 16.6666 10.0001 16.6666H5.0001C4.07965 16.6666 3.33344 15.9204 3.33344 15Z" fill="#16171A"/>
</svg>
