<svg width="39" height="40" viewBox="0 0 39 40" fill="none" xmlns="http://www.w3.org/2000/svg">
<path d="M0.550071 18.3822L5.58126 13.3636C6.25176 12.6947 7.27202 12.6281 7.86008 13.2147L19.5026 24.8283L31.1425 13.2173C31.7306 12.6306 32.7506 12.6971 33.4209 13.3657L38.4503 18.3826C39.1205 19.0512 39.1872 20.0687 38.5991 20.6552L25.7606 33.4619C25.7555 33.4671 25.7504 33.4722 25.7452 33.4774L20.714 38.496C20.7089 38.5011 20.7038 38.5062 20.6987 38.5112L20.5647 38.6448C20.281 38.9279 19.8966 39.0589 19.4995 39.0435C19.1027 39.0587 18.7188 38.9277 18.4352 38.6449L0.40079 20.6553C-0.187261 20.0688 -0.120426 19.0511 0.550071 18.3822Z" fill="#16171A"/>
<path d="M18.5694 0.384379L12.29 6.64822C11.7762 7.16072 11.7762 7.99167 12.29 8.50417L18.5694 14.768C19.0832 15.2805 19.9162 15.2805 20.43 14.768L26.7095 8.50417C27.2233 7.99167 27.2233 7.16072 26.7095 6.64822L20.43 0.384381C19.9162 -0.128127 19.0832 -0.128127 18.5694 0.384379Z" fill="#2382F4"/>
</svg>
